<svg width="1565" height="483" viewBox="0 0 1565 483" fill="none" xmlns="http://www.w3.org/2000/svg">
<g clip-path="url(#clip0_78_209)">
<path opacity="0.05" d="M747.512 835.733C741.275 836.281 737.912 824.723 747.512 818.69C755.989 812.259 775.81 816.932 781.466 835.733C788.199 853.49 775.262 881.272 747.512 886.857C720.872 893.809 684.81 872.8 679.603 835.733C672.362 799.888 701.625 755.479 747.512 750.516C792.302 743.015 844.657 780.545 849.381 835.733C857.204 889.784 811.476 950.55 747.512 955.03C684.651 963.02 615.805 909.127 611.695 835.733C603.416 763.369 665.378 686.367 747.512 682.342C828.648 673.804 913.503 744.086 917.289 835.733C925.918 926.138 847.921 1019.79 747.512 1023.2C648.206 1032.23 547.084 945.587 543.787 835.733C534.57 727.075 628.999 617.089 747.512 614.169C864.901 604.692 982.482 707.666 985.198 835.733C994.897 962.597 884.174 1088.94 747.512 1091.38C611.986 1101.47 478.112 981.94 475.879 835.733C465.69 690.722 592.713 547.852 747.512 546.001C901.181 535.448 1051.36 671.273 1053.11 835.733C1063.78 999.083 920.421 1158.05 747.512 1159.54C575.739 1170.46 409.133 1018.53 407.97 835.733C396.718 654.163 556.499 478.832 747.512 477.828C937.401 466.435 1120.33 634.721 1121.01 835.733C1132.75 1035.48 956.674 1227.27 747.512 1227.72C539.486 1239.76 340.253 1054.79 340.062 835.733C327.839 617.777 520.213 409.588 747.512 409.654C973.648 397.19 1189.31 598.328 1188.92 835.733C1201.73 1071.9 992.895 1296.41 747.512 1295.89C503.107 1308.88 271.407 1091.25 272.154 835.733C258.992 581.384 483.834 340.377 747.512 341.48C1010.09 327.946 1258.03 561.968 1256.83 835.733C1270.44 1108.29 1029.33 1365.65 747.512 1364.06C466.86 1378.12 202.435 1127.61 204.245 835.733C190.046 544.865 447.587 271.265 747.512 273.313C1046.31 258.801 1327.04 525.548 1324.74 835.733C1339.42 1144.74 1065.59 1434.87 747.512 1432.24C430.573 1447.33 133.555 1164.06 136.337 835.733C121.167 508.372 411.3 202.153 747.512 205.14C1082.53 189.689 1396.01 489.029 1392.65 835.733C1408.43 1181.33 1101.8 1503.85 747.512 1500.41C394.326 1516.35 64.6096 1200.65 68.4286 835.733C52.1617 471.986 375.086 132.908 747.512 136.966C1118.85 120.478 1464.86 452.636 1460.56 835.733C1477.28 1217.69 1138.09 1573.09 747.512 1568.58C358.106 1585.59 -4.36246 1237 0.520228 835.733C-16.8169 435.559 338.866 63.7632 747.512 68.7922C1155.19 51.2994 1533.71 416.243 1528.47 835.733C1546.12 1253.95 1174.47 1642.4 747.512 1636.75C321.661 1654.8 -73.1166 1273.39 -67.3882 835.733C-85.5314 399.199 302.421 -5.48103 747.512 0.625257C1191.44 -17.9447 1602.68 379.856 1596.37 835.733C1615.1 1290.47 1210.72 1711.51 747.512 1704.92" stroke="#240532" stroke-width="3" stroke-linecap="round"/>
</g>
<defs>
<clipPath id="clip0_78_209">
<rect width="1600" height="483" fill="white" transform="translate(-35)"/>
</clipPath>
</defs>
</svg>
