<svg width="19" height="20" viewBox="0 0 19 20" fill="none" xmlns="http://www.w3.org/2000/svg">
<path d="M16.8278 10C16.8278 9.77 16.818 9.55 16.7984 9.32L18.6157 7.91C19.0065 7.61 19.114 7.05 18.8698 6.61L17.0427 3.38C16.9256 3.16818 16.7361 3.00814 16.5106 2.93062C16.2852 2.8531 16.0398 2.86356 15.8214 2.96L13.7208 3.87C13.3593 3.61 12.9782 3.38 12.5777 3.19L12.2943 0.88C12.2357 0.38 11.8156 0 11.3271 0H7.68272C7.18443 0 6.7643 0.38 6.70568 0.88L6.42234 3.19C6.02176 3.38 5.64071 3.61 5.27921 3.87L3.17859 2.96C2.72915 2.76 2.20155 2.94 1.95729 3.38L0.130237 6.62C-0.114022 7.06 -0.00654815 7.61 0.384266 7.92L2.20155 9.33C2.16105 9.77905 2.16105 10.231 2.20155 10.68L0.384266 12.09C-0.00654815 12.39 -0.114022 12.95 0.130237 13.39L1.95729 16.62C2.20155 17.06 2.72915 17.24 3.17859 17.04L5.27921 16.13C5.64071 16.39 6.02176 16.62 6.42234 16.81L6.70568 19.12C6.7643 19.62 7.18443 20 7.67295 20H11.3173C11.8058 20 12.2259 19.62 12.2845 19.12L12.5679 16.81C12.9685 16.62 13.3495 16.39 13.711 16.13L15.8116 17.04C16.2611 17.24 16.7887 17.06 17.0329 16.62L18.86 13.39C19.1042 12.95 18.9968 12.4 18.606 12.09L16.7887 10.68C16.818 10.45 16.8278 10.23 16.8278 10ZM9.53908 13.5C7.6534 13.5 6.11946 11.93 6.11946 10C6.11946 8.07 7.6534 6.5 9.53908 6.5C11.4248 6.5 12.9587 8.07 12.9587 10C12.9587 11.93 11.4248 13.5 9.53908 13.5Z" fill="#240532"/>
</svg>
