<svg width="100" height="101" viewBox="0 0 100 101" fill="none" xmlns="http://www.w3.org/2000/svg">
<circle cx="50" cy="50.0017" r="50" fill="#240532"/>
<path d="M50 25.0017C36.2 25.0017 25 36.2017 25 50.0017C25 63.8017 36.2 75.0017 50 75.0017C63.8 75.0017 75 63.8017 75 50.0017C75 36.2017 63.8 25.0017 50 25.0017ZM61.6 42.0017C61.225 45.9517 59.6 55.5517 58.775 59.9767C58.425 61.8517 57.725 62.4767 57.075 62.5517C55.625 62.6767 54.525 61.6017 53.125 60.6767C50.925 59.2267 49.675 58.3267 47.55 56.9267C45.075 55.3017 46.675 54.4017 48.1 52.9517C48.475 52.5767 54.875 46.7517 55 46.2267C55.0174 46.1472 55.0151 46.0646 54.9933 45.9862C54.9715 45.9078 54.9309 45.8359 54.875 45.7767C54.725 45.6517 54.525 45.7017 54.35 45.7267C54.125 45.7767 50.625 48.1017 43.8 52.7017C42.8 53.3767 41.9 53.7267 41.1 53.7017C40.2 53.6767 38.5 53.2017 37.225 52.7767C35.65 52.2767 34.425 52.0017 34.525 51.1267C34.575 50.6767 35.2 50.2267 36.375 49.7517C43.675 46.5767 48.525 44.4767 50.95 43.4767C57.9 40.5767 59.325 40.0767 60.275 40.0767C60.475 40.0767 60.95 40.1267 61.25 40.3767C61.5 40.5767 61.575 40.8517 61.6 41.0517C61.575 41.2017 61.625 41.6517 61.6 42.0017Z" fill="#D6FF3F"/>
</svg>
