<svg aria-hidden="true" style="position: absolute; width: 0; height: 0; overflow: hidden;" version="1.1" xmlns="http://www.w3.org/2000/svg" xmlns:xlink="http://www.w3.org/1999/xlink">
<defs>
<symbol id="icon-frame15" viewBox="0 0 32 32">
<path fill="#918299" style="fill: var(--color1, #918299)" d="M16 32c-0.032-8.826-7.183-15.97-16-15.97 8.837 0 16-7.177 16-16.030 0.032 8.826 7.183 15.97 16 15.97-8.837 0-16 7.177-16 16.030z"></path>
</symbol>
<symbol id="icon-frame17" viewBox="0 0 30 32">
<path fill="#240532" style="fill: var(--color2, #240532)" d="M15 31c-0.030-8.274-6.734-14.972-15-14.972 8.284 0 15-6.728 15-15.028 0.030 8.274 6.734 14.972 15 14.972-8.284 0-15 6.728-15 15.028z"></path>
</symbol>
<symbol id="icon-frame40" viewBox="0 0 32 32">
<path fill="#240532" style="fill: var(--color2, #240532)" d="M16 32c-0.032-8.826-7.183-15.97-16-15.97 8.837 0 16-7.177 16-16.030 0.032 8.826 7.183 15.97 16 15.97-8.837 0-16 7.177-16 16.030z"></path>
</symbol>
<symbol id="icon-function" viewBox="0 0 30 32">
<path fill="#240532" style="fill: var(--color2, #240532)" d="M26.924 16c0-0.368-0.016-0.72-0.047-1.088l2.908-2.256c0.625-0.48 0.797-1.376 0.407-2.080l-2.923-5.168c-0.187-0.339-0.491-0.595-0.851-0.719s-0.753-0.107-1.103 0.047l-3.361 1.456c-0.578-0.416-1.188-0.784-1.829-1.088l-0.453-3.696c-0.094-0.8-0.766-1.408-1.548-1.408h-5.831c-0.797 0-1.469 0.608-1.563 1.408l-0.453 3.696c-0.641 0.304-1.251 0.672-1.829 1.088l-3.361-1.456c-0.719-0.32-1.563-0.032-1.954 0.672l-2.923 5.184c-0.391 0.704-0.219 1.584 0.406 2.080l2.908 2.256c-0.065 0.718-0.065 1.442 0 2.16l-2.908 2.256c-0.625 0.48-0.797 1.376-0.406 2.080l2.923 5.168c0.391 0.704 1.235 0.992 1.954 0.672l3.361-1.456c0.578 0.416 1.188 0.784 1.829 1.088l0.453 3.696c0.094 0.8 0.766 1.408 1.548 1.408h5.831c0.782 0 1.454-0.608 1.548-1.408l0.453-3.696c0.641-0.304 1.251-0.672 1.829-1.088l3.361 1.456c0.719 0.32 1.563 0.032 1.954-0.672l2.923-5.168c0.391-0.704 0.219-1.584-0.406-2.080l-2.908-2.256c0.047-0.368 0.063-0.72 0.063-1.088zM15.263 21.6c-3.017 0-5.471-2.512-5.471-5.6s2.454-5.6 5.471-5.6c3.017 0 5.471 2.512 5.471 5.6s-2.454 5.6-5.471 5.6z"></path>
</symbol>
<symbol id="icon-heart" viewBox="0 0 35 32">
<path fill="#240532" style="fill: var(--color2, #240532)" d="M17.6 32l-2.552-2.302c-9.064-8.144-15.048-13.532-15.048-20.107 0-5.389 4.259-9.591 9.68-9.591 3.062 0 6.002 1.413 7.92 3.627 1.918-2.215 4.858-3.627 7.92-3.627 5.421 0 9.68 4.203 9.68 9.591 0 6.574-5.984 11.963-15.048 20.107l-2.552 2.302z"></path>
</symbol>
<symbol id="icon-like" viewBox="0 0 32 32">
<path fill="#240532" style="fill: var(--color2, #240532)" d="M0.156 13.082c-0.094 0.781-0.156 1.574-0.156 2.381 0 7.091 3.731 13.265 9.256 16.537l1.031-2.264v-15.463l-1.144-1.19h-8.988zM32 14.273c0-1.19-1.144-2.381-2.288-2.381h-9.144c0.569-2.381 1.144-4.755 1.144-5.946 0-2.381-1.144-4.755-1.712-5.354-0.012-0.013-0.569-0.592-1.712-0.592-1.712 0-1.712 1.782-1.712 1.782 0 0.033-0.569 2.973-0.569 4.163s-2.287 5.946-3.431 7.136l-1.144 0.592v16.654l1.144 0.592h12.569c2.288 0 3.431-1.191 3.431-2.381s-1.144-2.381-2.288-2.381c2.288 0 3.431-1.191 3.431-2.381s-1.144-2.381-2.288-2.381c2.288 0 3.431-1.19 3.431-2.381s-1.144-2.381-2.288-2.381c2.281 0.020 3.425-1.171 3.425-2.361z"></path>
</symbol>
<symbol id="icon-logo" viewBox="0 0 21 32">
<path fill="#918299" style="fill: var(--color1, #918299)" d="M10.394 16.006c0-2.94 2.324-5.335 5.203-5.335 2.867 0 5.203 2.383 5.203 5.335 0 2.94-2.324 5.335-5.203 5.335-2.867 0-5.203-2.396-5.203-5.335z"></path>
<path fill="#828282" style="fill: var(--color3, #828282)" d="M0 26.665c0-2.94 2.324-5.335 5.203-5.335h5.203v5.335c0 2.94-2.324 5.335-5.203 5.335s-5.203-2.383-5.203-5.335z"></path>
<path fill="#55587b" style="fill: var(--color4, #55587b)" d="M10.394 0.012v10.659h5.203c2.867 0 5.203-2.383 5.203-5.335 0-2.94-2.324-5.335-5.203-5.335h-5.203v0.012z"></path>
<path fill="#626085" style="fill: var(--color5, #626085)" d="M0 5.347c0 2.94 2.324 5.335 5.203 5.335h5.203v-10.671h-5.203c-2.879 0-5.203 2.383-5.203 5.335z"></path>
<path fill="#8d8494" style="fill: var(--color6, #8d8494)" d="M0 16.006c0 2.94 2.324 5.335 5.203 5.335h5.203v-10.671h-5.203c-2.879 0-5.203 2.395-5.203 5.335z"></path>
</symbol>
<symbol id="icon-next" viewBox="0 0 62 32">
<path fill="none" stroke="#827089" style="stroke: var(--color7, #827089)" stroke-linejoin="miter" stroke-linecap="butt" stroke-miterlimit="4" stroke-width="2.4615" d="M0 15.287l59.077-0M59.077 15.287l-13.826 14.251M59.077 15.287l-13.826-12.826"></path>
</symbol>
<symbol id="icon-prev" viewBox="0 0 62 32">
<path fill="none" stroke="#827089" style="stroke: var(--color7, #827089)" stroke-linejoin="miter" stroke-linecap="butt" stroke-miterlimit="4" stroke-width="2.4615" d="M61.538 16.714h-59.077M2.462 16.714l13.826-14.251M2.462 16.714l13.826 12.826"></path>
</symbol>
<symbol id="icon-telegram" viewBox="0 0 32 32">
<path fill="#d6ff3f" style="fill: var(--color1, #d6ff3f)" d="M32 16c0 8.837-7.163 16-16 16s-16-7.163-16-16c0-8.837 7.163-16 16-16s16 7.163 16 16z"></path>
<path fill="#240532" style="fill: var(--color2, #240532)" d="M16 8c-4.416 0-8 3.584-8 8s3.584 8 8 8c4.416 0 8-3.584 8-8s-3.584-8-8-8zM19.712 13.44c-0.12 1.264-0.64 4.336-0.904 5.752-0.112 0.6-0.336 0.8-0.544 0.824-0.464 0.040-0.816-0.304-1.264-0.6-0.704-0.464-1.104-0.752-1.784-1.2-0.792-0.52-0.28-0.808 0.176-1.272 0.12-0.12 2.168-1.984 2.208-2.152 0.006-0.025 0.005-0.052-0.002-0.077s-0.020-0.048-0.038-0.067c-0.048-0.040-0.112-0.024-0.168-0.016-0.072 0.016-1.192 0.76-3.376 2.232-0.32 0.216-0.608 0.328-0.864 0.32-0.288-0.008-0.832-0.16-1.24-0.296-0.504-0.16-0.896-0.248-0.864-0.528 0.016-0.144 0.216-0.288 0.592-0.44 2.336-1.016 3.888-1.688 4.664-2.008 2.224-0.928 2.68-1.088 2.984-1.088 0.064 0 0.216 0.016 0.312 0.096 0.080 0.064 0.104 0.152 0.112 0.216-0.008 0.048 0.008 0.192 0 0.304z"></path>
</symbol>
<symbol id="icon-telegram2" viewBox="0 0 32 32">
<path fill="#240532" style="fill: var(--color1, #240532)" d="M32 16c0 8.837-7.163 16-16 16s-16-7.163-16-16c0-8.837 7.163-16 16-16s16 7.163 16 16z"></path>
<path fill="#d6ff3f" style="fill: var(--color2, #d6ff3f)" d="M16 8c-4.416 0-8 3.584-8 8s3.584 8 8 8c4.416 0 8-3.584 8-8s-3.584-8-8-8zM19.712 13.44c-0.12 1.264-0.64 4.336-0.904 5.752-0.112 0.6-0.336 0.8-0.544 0.824-0.464 0.040-0.816-0.304-1.264-0.6-0.704-0.464-1.104-0.752-1.784-1.2-0.792-0.52-0.28-0.808 0.176-1.272 0.12-0.12 2.168-1.984 2.208-2.152 0.006-0.025 0.005-0.052-0.002-0.077s-0.020-0.048-0.038-0.067c-0.048-0.040-0.112-0.024-0.168-0.016-0.072 0.016-1.192 0.76-3.376 2.232-0.32 0.216-0.608 0.328-0.864 0.32-0.288-0.008-0.832-0.16-1.24-0.296-0.504-0.16-0.896-0.248-0.864-0.528 0.016-0.144 0.216-0.288 0.592-0.44 2.336-1.016 3.888-1.688 4.664-2.008 2.224-0.928 2.68-1.088 2.984-1.088 0.064 0 0.216 0.016 0.312 0.096 0.080 0.064 0.104 0.152 0.112 0.216-0.008 0.048 0.008 0.192 0 0.304z"></path>
</symbol>
</defs>
</svg>
