<svg width="100" height="100" viewBox="0 0 100 100" fill="none" xmlns="http://www.w3.org/2000/svg">
<circle cx="50" cy="50.0007" r="50" fill="#D6FF3F"/>
<path d="M50 25.0007C36.2 25.0007 25 36.2007 25 50.0007C25 63.8007 36.2 75.0007 50 75.0007C63.8 75.0007 75 63.8007 75 50.0007C75 36.2007 63.8 25.0007 50 25.0007ZM61.6 42.0007C61.225 45.9507 59.6 55.5507 58.775 59.9757C58.425 61.8507 57.725 62.4757 57.075 62.5507C55.625 62.6757 54.525 61.6007 53.125 60.6757C50.925 59.2257 49.675 58.3257 47.55 56.9257C45.075 55.3007 46.675 54.4007 48.1 52.9507C48.475 52.5757 54.875 46.7507 55 46.2257C55.0174 46.1462 55.0151 46.0637 54.9933 45.9852C54.9715 45.9068 54.9309 45.8349 54.875 45.7757C54.725 45.6507 54.525 45.7007 54.35 45.7257C54.125 45.7757 50.625 48.1007 43.8 52.7007C42.8 53.3757 41.9 53.7257 41.1 53.7007C40.2 53.6757 38.5 53.2007 37.225 52.7757C35.65 52.2757 34.425 52.0007 34.525 51.1257C34.575 50.6757 35.2 50.2257 36.375 49.7507C43.675 46.5757 48.525 44.4757 50.95 43.4757C57.9 40.5757 59.325 40.0757 60.275 40.0757C60.475 40.0757 60.95 40.1257 61.25 40.3757C61.5 40.5757 61.575 40.8507 61.6 41.0507C61.575 41.2007 61.625 41.6507 61.6 42.0007Z" fill="#240532"/>
</svg>
